<?xml version="1.0" encoding="UTF-8" standalone="no"?>
<svg
   xmlns:dc="http://purl.org/dc/elements/1.1/"
   xmlns:cc="http://creativecommons.org/ns#"
   xmlns:rdf="http://www.w3.org/1999/02/22-rdf-syntax-ns#"
   xmlns:svg="http://www.w3.org/2000/svg"
   xmlns="http://www.w3.org/2000/svg"
   xmlns:xlink="http://www.w3.org/1999/xlink"
   id="svg8"
   version="1.1"
   viewBox="0 0 39.712433 39.712433"
   height="39.712433mm"
   width="39.712433mm">
  <defs
     id="defs2">
    <linearGradient
       gradientTransform="matrix(0.35617874,0,0,0.35617874,36.894239,-13.158047)"
       gradientUnits="userSpaceOnUse"
       y2="123.74962"
       x2="207.48882"
       y1="63.487614"
       x1="144.90904"
       id="linearGradient4783"
       xlink:href="#linearGradient4773" />
    <linearGradient
       id="linearGradient4773">
      <stop
         id="stop4769"
         offset="0"
         style="stop-color:#ff8c00;stop-opacity:1" />
      <stop
         id="stop4771"
         offset="1"
         style="stop-color:#ff0000;stop-opacity:1" />
    </linearGradient>
    <linearGradient
       y2="39.673058"
       x2="190.976"
       y1="66.579659"
       x1="136.64897"
       gradientTransform="matrix(0.35617874,0,0,0.35617874,62.411983,-15.647584)"
       gradientUnits="userSpaceOnUse"
       id="linearGradient4785"
       xlink:href="#linearGradient4773" />
    <linearGradient
       gradientTransform="matrix(0.09423896,0,0,0.09423896,287.25856,72.292671)"
       gradientUnits="userSpaceOnUse"
       y2="-143.34311"
       x2="38.442654"
       y1="153.71375"
       x1="518.97583"
       id="linearGradient4806"
       xlink:href="#linearGradient4773" />
    <linearGradient
       y2="220.45906"
       x2="469.10831"
       y1="45.719738"
       x1="4.5361247"
       gradientTransform="matrix(0.09423896,0,0,0.09423896,294.01013,71.633981)"
       gradientUnits="userSpaceOnUse"
       id="linearGradient4814"
       xlink:href="#linearGradient4773" />
  </defs>
  <metadata
     id="metadata5">
    <rdf:RDF>
      <cc:Work
         rdf:about="">
        <dc:format>image/svg+xml</dc:format>
        <dc:type
           rdf:resource="http://purl.org/dc/dcmitype/StillImage" />
        <dc:title></dc:title>
      </cc:Work>
    </rdf:RDF>
  </metadata>
  <g
     transform="translate(14.923409,-142.88328)"
     id="layer1">
    <path
       id="text4749"
       transform="matrix(0.26458334,0,0,0.26458334,-11.729224,162.19948)"
       d="m 13.660156,-72.958984 c -14.22937011,0 -25.685547,11.456192 -25.685547,25.685546 v 98.628907 c 0,14.229392 11.45617689,25.685547 25.685547,25.685547 h 98.630864 c 14.22936,0 25.68359,-11.456155 25.68359,-25.685547 v -98.628907 c 0,-14.229354 -11.45423,-25.685546 -25.68359,-25.685546 z m 4.513672,6.421875 h 89.601562 c 13.0111,0 23.48633,10.473238 23.48633,23.484375 v 90.1875 c 0,13.011099 -10.47523,23.484375 -23.48633,23.484375 H 18.173828 C 5.1627166,70.619141 -5.3125,60.145865 -5.3125,47.134766 v -90.1875 c 0,-13.011137 10.4752166,-23.484375 23.486328,-23.484375 z m 78.798828,31.625 v 73.90625 h 7.150394 v -73.90625 z M 27.863281,16.470703 c -1.912591,0 -3.396918,0.556623 -4.453125,1.669922 -1.056207,1.084753 -1.585937,2.455652 -1.585937,4.111328 0,1.655676 0.5422,3.010199 1.626953,4.066406 1.084753,1.056208 2.55661,1.583985 4.412109,1.583985 1.941138,0 3.439887,-0.527777 4.496094,-1.583985 1.056207,-1.084753 1.583984,-2.439276 1.583984,-4.066406 0,-1.655676 -0.527777,-3.026575 -1.583984,-4.111328 -1.056207,-1.113299 -2.554956,-1.669922 -4.496094,-1.669922 z m 24.492188,0 c -1.912592,0 -3.396918,0.556623 -4.453125,1.669922 -1.056207,1.084753 -1.583985,2.455652 -1.583985,4.111328 0,1.655676 0.5422,3.010199 1.626953,4.066406 1.084754,1.056208 2.554658,1.583985 4.410157,1.583985 1.941137,0 3.439886,-0.527777 4.496093,-1.583985 1.056208,-1.084753 1.583985,-2.439276 1.583985,-4.066406 0,-1.655676 -0.527777,-3.026575 -1.583985,-4.111328 -1.056207,-1.113299 -2.554956,-1.669922 -4.496093,-1.669922 z m 24.492187,0 c -1.912591,0 -3.396918,0.556623 -4.453125,1.669922 -1.056207,1.084753 -1.583984,2.455652 -1.583984,4.111328 0,1.655676 0.5422,3.010199 1.626953,4.066406 1.084753,1.056208 2.554657,1.583985 4.410156,1.583985 1.941138,0 3.439887,-0.527777 4.496094,-1.583985 1.056207,-1.084753 1.583984,-2.439276 1.583984,-4.066406 0,-1.655676 -0.527777,-3.026575 -1.583984,-4.111328 -1.056207,-1.113299 -2.554956,-1.669922 -4.496094,-1.669922 z"
       style="font-style:normal;font-variant:normal;font-weight:300;font-stretch:normal;font-size:23.20230293px;line-height:1.25;font-family:Roboto;-inkscape-font-specification:'Roboto, Light';font-variant-ligatures:normal;font-variant-caps:normal;font-variant-numeric:normal;font-feature-settings:normal;text-align:start;letter-spacing:0px;word-spacing:0px;writing-mode:lr-tb;text-anchor:start;fill:url(#linearGradient4783);fill-opacity:1;stroke:url(#linearGradient4785);stroke-width:0.09423897" />
  </g>
</svg>
